<svg width="43" height="42" viewBox="0 0 43 42" fill="none" xmlns="http://www.w3.org/2000/svg">
<circle cx="21" cy="21" r="21" stroke="#C7C6CE"/>
<path fill-rule="evenodd" clip-rule="evenodd" d="M20.9998 13.5C18.3076 13.5 15.7113 14.7384 13.2856 16.7781C12.4538 17.4774 11.7009 18.2245 11.0376 18.9723L10.7588 19.2927C10.5449 19.5435 10.3773 19.7523 10.2592 19.9077L9.7583 20.587L10.1943 21.1796C10.3514 21.3931 10.6367 21.7495 11.0376 22.2016C11.7009 22.9494 12.4538 23.6965 13.2856 24.3958C15.7113 26.4355 18.3076 27.6739 20.9998 27.6739C23.692 27.6739 26.2883 26.4355 28.714 24.3958C29.5457 23.6965 30.2987 22.9494 30.9619 22.2016L31.2408 21.8812C31.4547 21.6304 31.6223 21.4216 31.7404 21.2663L32.2413 20.587L31.8053 19.9943C31.6481 19.7808 31.3629 19.4244 30.9619 18.9723C30.2987 18.2245 29.5457 17.4774 28.714 16.7781C26.2883 14.7384 23.692 13.5 20.9998 13.5ZM20.9998 15.5C23.1391 15.5 25.3281 16.5442 27.4269 18.3089C28.1787 18.941 28.8636 19.6206 29.4656 20.2994L29.7158 20.586L29.4656 20.8745C28.8636 21.5534 28.1787 22.2329 27.4269 22.865C25.3281 24.6297 23.1391 25.6739 20.9998 25.6739C18.8605 25.6739 16.6714 24.6297 14.5727 22.865C13.8209 22.2329 13.136 21.5534 12.5339 20.8745L12.4048 20.7276C12.3635 20.6801 12.324 20.6343 12.2828 20.586L12.5339 20.2994C13.136 19.6206 13.8209 18.941 14.5727 18.3089C16.6714 16.5442 18.8605 15.5 20.9998 15.5ZM20.9998 16.5435C18.7666 16.5435 16.9563 18.3538 16.9563 20.587C16.9563 22.8201 18.7666 24.6304 20.9998 24.6304C23.2329 24.6304 25.0433 22.8201 25.0433 20.587C25.0433 18.3538 23.2329 16.5435 20.9998 16.5435ZM20.9998 18.5435C22.1284 18.5435 23.0433 19.4584 23.0433 20.587C23.0433 21.7155 22.1284 22.6304 20.9998 22.6304C19.8712 22.6304 18.9563 21.7155 18.9563 20.587C18.9563 19.4584 19.8712 18.5435 20.9998 18.5435Z" fill="black"/>
</svg>
