<svg width="1498" height="478" viewBox="0 0 1498 478" fill="none" xmlns="http://www.w3.org/2000/svg">
<g filter="url(#filter0_d)">
<rect x="100" y="46" width="1298" height="278" rx="15" fill="#FF794D"/>
</g>
<mask id="mask0" mask-type="alpha" maskUnits="userSpaceOnUse" x="100" y="46" width="1298" height="278">
<rect x="100" y="46" width="1298" height="278" rx="15" fill="#FF794D"/>
</mask>
<g mask="url(#mask0)">
<rect opacity="0.08" width="127.514" height="174.466" transform="matrix(0.609986 0.792412 -0.609986 0.792412 121.707 -109.76)" fill="white"/>
<rect opacity="0.05" width="127.514" height="627.291" transform="matrix(0.609986 0.792412 -0.609986 0.792412 1078.64 -130.672)" fill="white"/>
</g>
<path d="M1144.59 186.121C1144.59 188.035 1144.05 189.533 1142.96 190.613C1141.88 191.694 1140.38 192.234 1138.45 192.234C1136.39 192.234 1134.77 191.58 1133.57 190.271C1132.38 188.956 1131.78 187.166 1131.78 184.9C1131.78 182.667 1132.37 180.906 1133.56 179.617C1134.75 178.322 1136.37 177.674 1138.4 177.674C1140 177.674 1141.36 178.107 1142.48 178.973C1143.59 179.839 1144.26 180.978 1144.49 182.391H1141.93C1141.69 181.583 1141.26 180.952 1140.64 180.496C1140.02 180.04 1139.28 179.812 1138.41 179.812C1137.14 179.812 1136.15 180.258 1135.43 181.15C1134.72 182.042 1134.36 183.283 1134.36 184.871C1134.36 186.492 1134.73 187.768 1135.46 188.699C1136.21 189.63 1137.21 190.096 1138.48 190.096C1139.54 190.096 1140.41 189.79 1141.08 189.178C1141.76 188.566 1142.1 187.765 1142.12 186.775L1142.13 186.541H1138.74V184.617H1144.59V186.121ZM1156.92 189.871V192H1147.8V177.908H1156.92V180.037H1150.31V183.846H1156.55V185.848H1150.31V189.871H1156.92ZM1166.2 192H1163.69V180.037H1159.47V177.908H1170.41V180.037H1166.2V192ZM1177.85 188.035H1180.29C1180.37 188.68 1180.7 189.201 1181.28 189.598C1181.87 189.988 1182.6 190.184 1183.46 190.184C1184.31 190.184 1185 189.995 1185.53 189.617C1186.07 189.24 1186.34 188.758 1186.34 188.172C1186.34 187.664 1186.15 187.254 1185.76 186.941C1185.37 186.622 1184.73 186.359 1183.84 186.15L1182.02 185.721C1180.72 185.421 1179.76 184.956 1179.13 184.324C1178.5 183.693 1178.19 182.872 1178.19 181.863C1178.19 180.62 1178.68 179.611 1179.65 178.836C1180.63 178.061 1181.89 177.674 1183.43 177.674C1184.98 177.674 1186.23 178.058 1187.17 178.826C1188.12 179.588 1188.61 180.59 1188.65 181.834H1186.24C1186.19 181.176 1185.9 180.662 1185.39 180.291C1184.89 179.913 1184.23 179.725 1183.41 179.725C1182.62 179.725 1181.97 179.904 1181.48 180.262C1180.99 180.62 1180.75 181.092 1180.75 181.678C1180.75 182.146 1180.94 182.527 1181.31 182.82C1181.7 183.113 1182.32 183.364 1183.19 183.572L1184.81 183.943C1186.23 184.269 1187.27 184.744 1187.91 185.369C1188.56 185.994 1188.88 186.831 1188.88 187.879C1188.88 189.214 1188.38 190.275 1187.38 191.062C1186.38 191.844 1185.03 192.234 1183.32 192.234C1181.7 192.234 1180.39 191.86 1179.4 191.111C1178.42 190.356 1177.9 189.331 1177.85 188.035ZM1197.88 192H1195.37V180.037H1191.15V177.908H1202.09V180.037H1197.88V192ZM1212.24 192L1211.03 188.357H1205.85L1204.65 192H1202.05L1207.05 177.908H1209.89L1214.89 192H1212.24ZM1208.41 180.398L1206.43 186.414H1210.44L1208.48 180.398H1208.41ZM1220.06 179.949V184.764H1222.91C1223.71 184.764 1224.33 184.552 1224.77 184.129C1225.21 183.706 1225.44 183.113 1225.44 182.352C1225.44 181.609 1225.2 181.023 1224.74 180.594C1224.28 180.164 1223.65 179.949 1222.86 179.949H1220.06ZM1220.06 186.697V192H1217.55V177.908H1223.14C1224.66 177.908 1225.85 178.302 1226.72 179.09C1227.58 179.871 1228.01 180.939 1228.01 182.293C1228.01 183.237 1227.78 184.07 1227.31 184.793C1226.84 185.509 1226.19 186.017 1225.36 186.316L1228.43 192H1225.56L1222.79 186.697H1220.06ZM1237.14 192H1234.63V180.037H1230.41V177.908H1241.35V180.037H1237.14V192Z" fill="white"/>
<rect x="1098" y="157" width="178" height="56" rx="28" stroke="white" stroke-width="2"/>
<path d="M228.027 213V197.988H233.359V196.09H220.586V197.988H225.918V213H228.027ZM235.668 213.211C237.309 213.211 238.855 212.297 239.582 210.902H239.629V213H241.562V204.574C241.562 202.148 239.758 200.602 236.898 200.602C234.016 200.602 232.211 202.219 232.07 204.328H234.039C234.297 203.133 235.281 202.395 236.852 202.395C238.539 202.395 239.523 203.285 239.523 204.773V205.793L236.031 205.992C233.219 206.156 231.613 207.469 231.613 209.555C231.613 211.746 233.242 213.211 235.668 213.211ZM236.125 211.477C234.66 211.477 233.688 210.715 233.688 209.555C233.688 208.406 234.625 207.68 236.266 207.574L239.523 207.375V208.371C239.523 210.129 238.047 211.477 236.125 211.477ZM251.219 208.406L252.355 207.328L256.879 213H259.246L253.797 206.074L259.082 200.812H256.609L251.219 206.227V196.09H249.18V213H251.219V208.406ZM265.188 213.211C268.551 213.211 270.824 210.785 270.824 206.906C270.824 203.016 268.551 200.602 265.188 200.602C261.812 200.602 259.539 203.016 259.539 206.906C259.539 210.785 261.812 213.211 265.188 213.211ZM265.188 211.418C263.031 211.418 261.613 209.777 261.613 206.906C261.613 204.035 263.031 202.395 265.188 202.395C267.344 202.395 268.75 204.035 268.75 206.906C268.75 209.777 267.344 211.418 265.188 211.418ZM272.887 213H274.926V205.828C274.926 203.766 276.18 202.406 278.102 202.406C279.977 202.406 280.902 203.484 280.902 205.453V213H282.941V205.09C282.941 202.324 281.395 200.602 278.723 200.602C276.836 200.602 275.535 201.445 274.855 202.758H274.809V200.812H272.887V213ZM286.199 197.871V200.812H284.383V202.488H286.199V209.836C286.199 212.18 287.066 213.094 289.305 213.094C289.785 213.094 290.348 213.059 290.594 213V211.289C290.453 211.312 289.984 211.348 289.75 211.348C288.707 211.348 288.238 210.844 288.238 209.73V202.488H290.605V200.812H288.238V197.871H286.199ZM296.113 213.211C297.754 213.211 299.301 212.297 300.027 210.902H300.074V213H302.008V204.574C302.008 202.148 300.203 200.602 297.344 200.602C294.461 200.602 292.656 202.219 292.516 204.328H294.484C294.742 203.133 295.727 202.395 297.297 202.395C298.984 202.395 299.969 203.285 299.969 204.773V205.793L296.477 205.992C293.664 206.156 292.059 207.469 292.059 209.555C292.059 211.746 293.688 213.211 296.113 213.211ZM296.57 211.477C295.105 211.477 294.133 210.715 294.133 209.555C294.133 208.406 295.07 207.68 296.711 207.574L299.969 207.375V208.371C299.969 210.129 298.492 211.477 296.57 211.477ZM306.742 208.406L307.879 207.328L312.402 213H314.77L309.32 206.074L314.605 200.812H312.133L306.742 206.227V196.09H304.703V213H306.742V208.406ZM316.902 197.871V200.812H315.086V202.488H316.902V209.836C316.902 212.18 317.77 213.094 320.008 213.094C320.488 213.094 321.051 213.059 321.297 213V211.289C321.156 211.312 320.688 211.348 320.453 211.348C319.41 211.348 318.941 210.844 318.941 209.73V202.488H321.309V200.812H318.941V197.871H316.902ZM329.066 213H331.105V202.488H333.59V200.812H331.094V199.465C331.094 198.258 331.621 197.672 332.723 197.672C333.062 197.672 333.402 197.707 333.648 197.742V196.09C333.355 196.043 332.863 195.996 332.406 195.996C330.156 195.996 329.066 197.109 329.066 199.453V200.812H327.367V202.488H329.066V213ZM340.164 213.211C343.527 213.211 345.801 210.785 345.801 206.906C345.801 203.016 343.527 200.602 340.164 200.602C336.789 200.602 334.516 203.016 334.516 206.906C334.516 210.785 336.789 213.211 340.164 213.211ZM340.164 211.418C338.008 211.418 336.59 209.777 336.59 206.906C336.59 204.035 338.008 202.395 340.164 202.395C342.32 202.395 343.727 204.035 343.727 206.906C343.727 209.777 342.32 211.418 340.164 211.418ZM347.863 213H349.902V205.406C349.902 203.684 350.934 202.547 352.516 202.547C353.008 202.547 353.441 202.605 353.605 202.664V200.684C353.441 200.66 353.137 200.602 352.785 200.602C351.355 200.602 350.23 201.457 349.832 202.805H349.785V200.812H347.863V213ZM368.277 209.508C367.938 210.656 366.801 211.441 365.254 211.441C363.062 211.441 361.691 209.906 361.691 207.574V207.457H370.434V206.684C370.434 202.992 368.406 200.602 365.113 200.602C361.75 200.602 359.594 203.168 359.594 206.953C359.594 210.785 361.715 213.211 365.207 213.211C367.867 213.211 369.93 211.641 370.281 209.508H368.277ZM365.078 202.371C367 202.371 368.277 203.824 368.324 205.863H361.703C361.832 203.836 363.168 202.371 365.078 202.371ZM373.152 197.871V200.812H371.336V202.488H373.152V209.836C373.152 212.18 374.02 213.094 376.258 213.094C376.738 213.094 377.301 213.059 377.547 213V211.289C377.406 211.312 376.938 211.348 376.703 211.348C375.66 211.348 375.191 210.844 375.191 209.73V202.488H377.559V200.812H375.191V197.871H373.152ZM384.66 213H386.699V205.828C386.699 203.766 387.953 202.406 389.875 202.406C391.75 202.406 392.676 203.484 392.676 205.453V213H394.715V205.09C394.715 202.324 393.168 200.602 390.496 200.602C388.609 200.602 387.309 201.445 386.629 202.758H386.582V200.812H384.66V213ZM398.336 217.559C400.539 217.559 401.547 216.703 402.59 213.855L407.383 200.812H405.238L401.863 210.961H401.828L398.453 200.812H396.273L400.773 213.012L400.492 213.867C400.023 215.285 399.391 215.836 398.254 215.836C397.996 215.836 397.68 215.824 397.457 215.777V217.488C397.68 217.535 398.09 217.559 398.336 217.559ZM409.645 197.871V200.812H407.828V202.488H409.645V209.836C409.645 212.18 410.512 213.094 412.75 213.094C413.23 213.094 413.793 213.059 414.039 213V211.289C413.898 211.312 413.43 211.348 413.195 211.348C412.152 211.348 411.684 210.844 411.684 209.73V202.488H414.051V200.812H411.684V197.871H409.645ZM416.887 197.871V200.812H415.07V202.488H416.887V209.836C416.887 212.18 417.754 213.094 419.992 213.094C420.473 213.094 421.035 213.059 421.281 213V211.289C421.141 211.312 420.672 211.348 420.438 211.348C419.395 211.348 418.926 210.844 418.926 209.73V202.488H421.293V200.812H418.926V197.871H416.887ZM433.012 213.211C434.77 213.211 436.164 212.344 436.949 210.938H436.984V213H438.93V196.09H436.891V202.793H436.844C436.117 201.457 434.711 200.602 432.965 200.602C429.895 200.602 427.797 203.086 427.797 206.906C427.797 210.727 429.906 213.211 433.012 213.211ZM433.398 202.395C435.496 202.395 436.902 204.188 436.902 206.906C436.902 209.637 435.496 211.418 433.398 211.418C431.242 211.418 429.883 209.672 429.883 206.906C429.883 204.152 431.242 202.395 433.398 202.395ZM449.77 209.508C449.43 210.656 448.293 211.441 446.746 211.441C444.555 211.441 443.184 209.906 443.184 207.574V207.457H451.926V206.684C451.926 202.992 449.898 200.602 446.605 200.602C443.242 200.602 441.086 203.168 441.086 206.953C441.086 210.785 443.207 213.211 446.699 213.211C449.359 213.211 451.422 211.641 451.773 209.508H449.77ZM446.57 202.371C448.492 202.371 449.77 203.824 449.816 205.863H443.195C443.324 203.836 444.66 202.371 446.57 202.371ZM453.777 204.176C453.777 205.934 454.891 207 457.188 207.551L459.121 208.02C460.516 208.359 460.996 208.863 460.996 209.742C460.996 210.844 459.977 211.547 458.324 211.547C456.672 211.547 455.734 210.879 455.488 209.484H453.449C453.684 211.77 455.465 213.211 458.324 213.211C461.043 213.211 463.047 211.711 463.047 209.59C463.047 207.844 462.156 206.883 459.695 206.285L457.762 205.816C456.402 205.488 455.781 204.914 455.781 204.07C455.781 203.004 456.766 202.266 458.254 202.266C459.754 202.266 460.691 203.051 460.844 204.328H462.789C462.707 202.172 460.926 200.602 458.254 200.602C455.617 200.602 453.777 202.09 453.777 204.176ZM466.293 198.645C467.008 198.645 467.57 198.07 467.57 197.367C467.57 196.652 467.008 196.09 466.293 196.09C465.59 196.09 465.016 196.652 465.016 197.367C465.016 198.07 465.59 198.645 466.293 198.645ZM465.273 213H467.312V200.812H465.273V213ZM475.094 217.594C478.457 217.594 480.602 215.66 480.602 212.754V200.812H478.656V202.863H478.621C477.812 201.445 476.383 200.602 474.66 200.602C471.508 200.602 469.469 203.039 469.469 206.859C469.469 210.645 471.508 213.094 474.613 213.094C476.324 213.094 477.766 212.227 478.516 210.902H478.562V212.824C478.562 214.641 477.285 215.859 475.176 215.859C473.652 215.859 472.445 215.121 472.047 214.008H469.949C470.289 216.082 472.41 217.594 475.094 217.594ZM475.023 211.301C472.926 211.301 471.555 209.59 471.555 206.859C471.555 204.129 472.926 202.395 475.023 202.395C477.145 202.395 478.562 204.176 478.562 206.859C478.562 209.543 477.145 211.301 475.023 211.301ZM483.262 213H485.301V205.828C485.301 203.766 486.555 202.406 488.477 202.406C490.352 202.406 491.277 203.484 491.277 205.453V213H493.316V205.09C493.316 202.324 491.77 200.602 489.098 200.602C487.211 200.602 485.91 201.445 485.23 202.758H485.184V200.812H483.262V213ZM506.758 200.602C504.988 200.602 503.57 201.504 502.82 202.875H502.773V200.812H500.84V217.066H502.879V211.02H502.926C503.652 212.355 505.059 213.211 506.805 213.211C509.875 213.211 511.973 210.727 511.973 206.906C511.973 203.086 509.863 200.602 506.758 200.602ZM506.359 211.418C504.273 211.418 502.867 209.625 502.867 206.906C502.867 204.199 504.273 202.395 506.359 202.395C508.527 202.395 509.887 204.152 509.887 206.906C509.887 209.672 508.527 211.418 506.359 211.418ZM518.688 199.734C519.918 199.734 520.926 198.727 520.926 197.496C520.926 196.266 519.918 195.258 518.688 195.258C517.457 195.258 516.449 196.266 516.449 197.496C516.449 198.727 517.457 199.734 518.688 199.734ZM518.688 198.703C518.02 198.703 517.48 198.164 517.48 197.496C517.48 196.828 518.02 196.289 518.688 196.289C519.355 196.289 519.895 196.828 519.895 197.496C519.895 198.164 519.355 198.703 518.688 198.703ZM517.598 213.211C519.238 213.211 520.785 212.297 521.512 210.902H521.559V213H523.492V204.574C523.492 202.148 521.688 200.602 518.828 200.602C515.945 200.602 514.141 202.219 514 204.328H515.969C516.227 203.133 517.211 202.395 518.781 202.395C520.469 202.395 521.453 203.285 521.453 204.773V205.793L517.961 205.992C515.148 206.156 513.543 207.469 513.543 209.555C513.543 211.746 515.172 213.211 517.598 213.211ZM518.055 211.477C516.59 211.477 515.617 210.715 515.617 209.555C515.617 208.406 516.555 207.68 518.195 207.574L521.453 207.375V208.371C521.453 210.129 519.977 211.477 518.055 211.477ZM539.09 209.508C538.75 210.656 537.613 211.441 536.066 211.441C533.875 211.441 532.504 209.906 532.504 207.574V207.457H541.246V206.684C541.246 202.992 539.219 200.602 535.926 200.602C532.562 200.602 530.406 203.168 530.406 206.953C530.406 210.785 532.527 213.211 536.02 213.211C538.68 213.211 540.742 211.641 541.094 209.508H539.09ZM535.891 202.371C537.812 202.371 539.09 203.824 539.137 205.863H532.516C532.645 203.836 533.98 202.371 535.891 202.371ZM543.309 213H545.348V205.828C545.348 203.766 546.602 202.406 548.523 202.406C550.398 202.406 551.324 203.484 551.324 205.453V213H553.363V205.09C553.363 202.324 551.816 200.602 549.145 200.602C547.258 200.602 545.957 201.445 545.277 202.758H545.23V200.812H543.309V213ZM560.887 213H562.926V205.828C562.926 203.766 564.18 202.406 566.102 202.406C567.977 202.406 568.902 203.484 568.902 205.453V213H570.941V205.09C570.941 202.324 569.395 200.602 566.723 200.602C564.836 200.602 563.535 201.445 562.855 202.758H562.809V200.812H560.887V213ZM581.629 209.508C581.289 210.656 580.152 211.441 578.605 211.441C576.414 211.441 575.043 209.906 575.043 207.574V207.457H583.785V206.684C583.785 202.992 581.758 200.602 578.465 200.602C575.102 200.602 572.945 203.168 572.945 206.953C572.945 210.785 575.066 213.211 578.559 213.211C581.219 213.211 583.281 211.641 583.633 209.508H581.629ZM578.43 202.371C580.352 202.371 581.629 203.824 581.676 205.863H575.055C575.184 203.836 576.52 202.371 578.43 202.371ZM586.504 197.871V200.812H584.688V202.488H586.504V209.836C586.504 212.18 587.371 213.094 589.609 213.094C590.09 213.094 590.652 213.059 590.898 213V211.289C590.758 211.312 590.289 211.348 590.055 211.348C589.012 211.348 588.543 210.844 588.543 209.73V202.488H590.91V200.812H588.543V197.871H586.504ZM593.746 197.871V200.812H591.93V202.488H593.746V209.836C593.746 212.18 594.613 213.094 596.852 213.094C597.332 213.094 597.895 213.059 598.141 213V211.289C598 211.312 597.531 211.348 597.297 211.348C596.254 211.348 595.785 210.844 595.785 209.73V202.488H598.152V200.812H595.785V197.871H593.746ZM600.121 204.176C600.121 205.934 601.234 207 603.531 207.551L605.465 208.02C606.859 208.359 607.34 208.863 607.34 209.742C607.34 210.844 606.32 211.547 604.668 211.547C603.016 211.547 602.078 210.879 601.832 209.484H599.793C600.027 211.77 601.809 213.211 604.668 213.211C607.387 213.211 609.391 211.711 609.391 209.59C609.391 207.844 608.5 206.883 606.039 206.285L604.105 205.816C602.746 205.488 602.125 204.914 602.125 204.07C602.125 203.004 603.109 202.266 604.598 202.266C606.098 202.266 607.035 203.051 607.188 204.328H609.133C609.051 202.172 607.27 200.602 604.598 200.602C601.961 200.602 600.121 202.09 600.121 204.176ZM612.637 198.645C613.352 198.645 613.914 198.07 613.914 197.367C613.914 196.652 613.352 196.09 612.637 196.09C611.934 196.09 611.359 196.652 611.359 197.367C611.359 198.07 611.934 198.645 612.637 198.645ZM611.617 213H613.656V200.812H611.617V213ZM621.027 213.211C622.785 213.211 624.18 212.344 624.965 210.938H625V213H626.945V196.09H624.906V202.793H624.859C624.133 201.457 622.727 200.602 620.98 200.602C617.91 200.602 615.812 203.086 615.812 206.906C615.812 210.727 617.922 213.211 621.027 213.211ZM621.414 202.395C623.512 202.395 624.918 204.188 624.918 206.906C624.918 209.637 623.512 211.418 621.414 211.418C619.258 211.418 617.898 209.672 617.898 206.906C617.898 204.152 619.258 202.395 621.414 202.395ZM637.785 209.508C637.445 210.656 636.309 211.441 634.762 211.441C632.57 211.441 631.199 209.906 631.199 207.574V207.457H639.941V206.684C639.941 202.992 637.914 200.602 634.621 200.602C631.258 200.602 629.102 203.168 629.102 206.953C629.102 210.785 631.223 213.211 634.715 213.211C637.375 213.211 639.438 211.641 639.789 209.508H637.785ZM634.586 202.371C636.508 202.371 637.785 203.824 637.832 205.863H631.211C631.34 203.836 632.676 202.371 634.586 202.371ZM655.012 209.508C654.672 210.656 653.535 211.441 651.988 211.441C649.797 211.441 648.426 209.906 648.426 207.574V207.457H657.168V206.684C657.168 202.992 655.141 200.602 651.848 200.602C648.484 200.602 646.328 203.168 646.328 206.953C646.328 210.785 648.449 213.211 651.941 213.211C654.602 213.211 656.664 211.641 657.016 209.508H655.012ZM651.812 202.371C653.734 202.371 655.012 203.824 655.059 205.863H648.438C648.566 203.836 649.902 202.371 651.812 202.371ZM659.336 213H661.375V196.09H659.336V213ZM664.234 213H666.273V196.09H664.234V213ZM677.113 209.508C676.773 210.656 675.637 211.441 674.09 211.441C671.898 211.441 670.527 209.906 670.527 207.574V207.457H679.27V206.684C679.27 202.992 677.242 200.602 673.949 200.602C670.586 200.602 668.43 203.168 668.43 206.953C668.43 210.785 670.551 213.211 674.043 213.211C676.703 213.211 678.766 211.641 679.117 209.508H677.113ZM673.914 202.371C675.836 202.371 677.113 203.824 677.16 205.863H670.539C670.668 203.836 672.004 202.371 673.914 202.371ZM681.332 213H683.371V205.406C683.371 203.684 684.402 202.547 685.984 202.547C686.477 202.547 686.91 202.605 687.074 202.664V200.684C686.91 200.66 686.605 200.602 686.254 200.602C684.824 200.602 683.699 201.457 683.301 202.805H683.254V200.812H681.332V213ZM698.711 213.211C702.074 213.211 704.348 210.785 704.348 206.906C704.348 203.016 702.074 200.602 698.711 200.602C695.336 200.602 693.062 203.016 693.062 206.906C693.062 210.785 695.336 213.211 698.711 213.211ZM698.711 211.418C696.555 211.418 695.137 209.777 695.137 206.906C695.137 204.035 696.555 202.395 698.711 202.395C700.867 202.395 702.273 204.035 702.273 206.906C702.273 209.777 700.867 211.418 698.711 211.418ZM712.328 200.602C710.559 200.602 709.141 201.504 708.391 202.875H708.344V200.812H706.41V217.066H708.449V211.02H708.496C709.223 212.355 710.629 213.211 712.375 213.211C715.445 213.211 717.543 210.727 717.543 206.906C717.543 203.086 715.434 200.602 712.328 200.602ZM711.93 211.418C709.844 211.418 708.438 209.625 708.438 206.906C708.438 204.199 709.844 202.395 711.93 202.395C714.098 202.395 715.457 204.152 715.457 206.906C715.457 209.672 714.098 211.418 711.93 211.418ZM725.523 200.602C723.754 200.602 722.336 201.504 721.586 202.875H721.539V200.812H719.605V217.066H721.645V211.02H721.691C722.418 212.355 723.824 213.211 725.57 213.211C728.641 213.211 730.738 210.727 730.738 206.906C730.738 203.086 728.629 200.602 725.523 200.602ZM725.125 211.418C723.039 211.418 721.633 209.625 721.633 206.906C721.633 204.199 723.039 202.395 725.125 202.395C727.293 202.395 728.652 204.152 728.652 206.906C728.652 209.672 727.293 211.418 725.125 211.418ZM737.828 217.594C741.191 217.594 743.336 215.66 743.336 212.754V200.812H741.391V202.863H741.355C740.547 201.445 739.117 200.602 737.395 200.602C734.242 200.602 732.203 203.039 732.203 206.859C732.203 210.645 734.242 213.094 737.348 213.094C739.059 213.094 740.5 212.227 741.25 210.902H741.297V212.824C741.297 214.641 740.02 215.859 737.91 215.859C736.387 215.859 735.18 215.121 734.781 214.008H732.684C733.023 216.082 735.145 217.594 737.828 217.594ZM737.758 211.301C735.66 211.301 734.289 209.59 734.289 206.859C734.289 204.129 735.66 202.395 737.758 202.395C739.879 202.395 741.297 204.176 741.297 206.859C741.297 209.543 739.879 211.301 737.758 211.301ZM745.996 213H748.035V205.406C748.035 203.684 749.066 202.547 750.648 202.547C751.141 202.547 751.574 202.605 751.738 202.664V200.684C751.574 200.66 751.27 200.602 750.918 200.602C749.488 200.602 748.363 201.457 747.965 202.805H747.918V200.812H745.996V213ZM756.73 213.211C758.371 213.211 759.918 212.297 760.645 210.902H760.691V213H762.625V204.574C762.625 202.148 760.82 200.602 757.961 200.602C755.078 200.602 753.273 202.219 753.133 204.328H755.102C755.359 203.133 756.344 202.395 757.914 202.395C759.602 202.395 760.586 203.285 760.586 204.773V205.793L757.094 205.992C754.281 206.156 752.676 207.469 752.676 209.555C752.676 211.746 754.305 213.211 756.73 213.211ZM757.188 211.477C755.723 211.477 754.75 210.715 754.75 209.555C754.75 208.406 755.688 207.68 757.328 207.574L760.586 207.375V208.371C760.586 210.129 759.109 211.477 757.188 211.477ZM769.832 213.211C771.59 213.211 772.984 212.344 773.77 210.938H773.805V213H775.75V196.09H773.711V202.793H773.664C772.938 201.457 771.531 200.602 769.785 200.602C766.715 200.602 764.617 203.086 764.617 206.906C764.617 210.727 766.727 213.211 769.832 213.211ZM770.219 202.395C772.316 202.395 773.723 204.188 773.723 206.906C773.723 209.637 772.316 211.418 770.219 211.418C768.062 211.418 766.703 209.672 766.703 206.906C766.703 204.152 768.062 202.395 770.219 202.395ZM786.59 209.508C786.25 210.656 785.113 211.441 783.566 211.441C781.375 211.441 780.004 209.906 780.004 207.574V207.457H788.746V206.684C788.746 202.992 786.719 200.602 783.426 200.602C780.062 200.602 777.906 203.168 777.906 206.953C777.906 210.785 780.027 213.211 783.52 213.211C786.18 213.211 788.242 211.641 788.594 209.508H786.59ZM783.391 202.371C785.312 202.371 786.59 203.824 786.637 205.863H780.016C780.145 203.836 781.48 202.371 783.391 202.371ZM790.809 213H792.848V205.406C792.848 203.684 793.879 202.547 795.461 202.547C795.953 202.547 796.387 202.605 796.551 202.664V200.684C796.387 200.66 796.082 200.602 795.73 200.602C794.301 200.602 793.176 201.457 792.777 202.805H792.73V200.812H790.809V213ZM811.223 209.508C810.883 210.656 809.746 211.441 808.199 211.441C806.008 211.441 804.637 209.906 804.637 207.574V207.457H813.379V206.684C813.379 202.992 811.352 200.602 808.059 200.602C804.695 200.602 802.539 203.168 802.539 206.953C802.539 210.785 804.66 213.211 808.152 213.211C810.812 213.211 812.875 211.641 813.227 209.508H811.223ZM808.023 202.371C809.945 202.371 811.223 203.824 811.27 205.863H804.648C804.777 203.836 806.113 202.371 808.023 202.371ZM815.441 213H817.48V205.828C817.48 203.766 818.734 202.406 820.656 202.406C822.531 202.406 823.457 203.484 823.457 205.453V213H825.496V205.09C825.496 202.324 823.949 200.602 821.277 200.602C819.391 200.602 818.09 201.445 817.41 202.758H817.363V200.812H815.441V213ZM841.105 209.508C840.766 210.656 839.629 211.441 838.082 211.441C835.891 211.441 834.52 209.906 834.52 207.574V207.457H843.262V206.684C843.262 202.992 841.234 200.602 837.941 200.602C834.578 200.602 832.422 203.168 832.422 206.953C832.422 210.785 834.543 213.211 838.035 213.211C840.695 213.211 842.758 211.641 843.109 209.508H841.105ZM837.906 202.371C839.828 202.371 841.105 203.824 841.152 205.863H834.531C834.66 203.836 835.996 202.371 837.906 202.371ZM847.469 208.406L848.605 207.328L853.129 213H855.496L850.047 206.074L855.332 200.812H852.859L847.469 206.227V196.09H845.43V213H847.469V208.406ZM856.293 204.176C856.293 205.934 857.406 207 859.703 207.551L861.637 208.02C863.031 208.359 863.512 208.863 863.512 209.742C863.512 210.844 862.492 211.547 860.84 211.547C859.188 211.547 858.25 210.879 858.004 209.484H855.965C856.199 211.77 857.98 213.211 860.84 213.211C863.559 213.211 865.562 211.711 865.562 209.59C865.562 207.844 864.672 206.883 862.211 206.285L860.277 205.816C858.918 205.488 858.297 204.914 858.297 204.07C858.297 203.004 859.281 202.266 860.77 202.266C862.27 202.266 863.207 203.051 863.359 204.328H865.305C865.223 202.172 863.441 200.602 860.77 200.602C858.133 200.602 856.293 202.09 856.293 204.176ZM868.809 198.645C869.523 198.645 870.086 198.07 870.086 197.367C870.086 196.652 869.523 196.09 868.809 196.09C868.105 196.09 867.531 196.652 867.531 197.367C867.531 198.07 868.105 198.645 868.809 198.645ZM867.789 213H869.828V200.812H867.789V213ZM872.371 204.176C872.371 205.934 873.484 207 875.781 207.551L877.715 208.02C879.109 208.359 879.59 208.863 879.59 209.742C879.59 210.844 878.57 211.547 876.918 211.547C875.266 211.547 874.328 210.879 874.082 209.484H872.043C872.277 211.77 874.059 213.211 876.918 213.211C879.637 213.211 881.641 211.711 881.641 209.59C881.641 207.844 880.75 206.883 878.289 206.285L876.355 205.816C874.996 205.488 874.375 204.914 874.375 204.07C874.375 203.004 875.359 202.266 876.848 202.266C878.348 202.266 879.285 203.051 879.438 204.328H881.383C881.301 202.172 879.52 200.602 876.848 200.602C874.211 200.602 872.371 202.09 872.371 204.176ZM884.418 197.871V200.812H882.602V202.488H884.418V209.836C884.418 212.18 885.285 213.094 887.523 213.094C888.004 213.094 888.566 213.059 888.812 213V211.289C888.672 211.312 888.203 211.348 887.969 211.348C886.926 211.348 886.457 210.844 886.457 209.73V202.488H888.824V200.812H886.457V197.871H884.418ZM898.738 209.508C898.398 210.656 897.262 211.441 895.715 211.441C893.523 211.441 892.152 209.906 892.152 207.574V207.457H900.895V206.684C900.895 202.992 898.867 200.602 895.574 200.602C892.211 200.602 890.055 203.168 890.055 206.953C890.055 210.785 892.176 213.211 895.668 213.211C898.328 213.211 900.391 211.641 900.742 209.508H898.738ZM895.539 202.371C897.461 202.371 898.738 203.824 898.785 205.863H892.164C892.293 203.836 893.629 202.371 895.539 202.371ZM902.957 213H904.996V205.406C904.996 203.684 906.027 202.547 907.609 202.547C908.102 202.547 908.535 202.605 908.699 202.664V200.684C908.535 200.66 908.23 200.602 907.879 200.602C906.449 200.602 905.324 201.457 904.926 202.805H904.879V200.812H902.957V213ZM917.863 209.508C917.523 210.656 916.387 211.441 914.84 211.441C912.648 211.441 911.277 209.906 911.277 207.574V207.457H920.02V206.684C920.02 202.992 917.992 200.602 914.699 200.602C911.336 200.602 909.18 203.168 909.18 206.953C909.18 210.785 911.301 213.211 914.793 213.211C917.453 213.211 919.516 211.641 919.867 209.508H917.863ZM914.664 202.371C916.586 202.371 917.863 203.824 917.91 205.863H911.289C911.418 203.836 912.754 202.371 914.664 202.371ZM922.082 213H924.121V205.828C924.121 203.766 925.375 202.406 927.297 202.406C929.172 202.406 930.098 203.484 930.098 205.453V213H932.137V205.09C932.137 202.324 930.59 200.602 927.918 200.602C926.031 200.602 924.73 201.445 924.051 202.758H924.004V200.812H922.082V213ZM939.355 213.211C941.113 213.211 942.508 212.344 943.293 210.938H943.328V213H945.273V196.09H943.234V202.793H943.188C942.461 201.457 941.055 200.602 939.309 200.602C936.238 200.602 934.141 203.086 934.141 206.906C934.141 210.727 936.25 213.211 939.355 213.211ZM939.742 202.395C941.84 202.395 943.246 204.188 943.246 206.906C943.246 209.637 941.84 211.418 939.742 211.418C937.586 211.418 936.227 209.672 936.227 206.906C936.227 204.152 937.586 202.395 939.742 202.395ZM956.113 209.508C955.773 210.656 954.637 211.441 953.09 211.441C950.898 211.441 949.527 209.906 949.527 207.574V207.457H958.27V206.684C958.27 202.992 956.242 200.602 952.949 200.602C949.586 200.602 947.43 203.168 947.43 206.953C947.43 210.785 949.551 213.211 953.043 213.211C955.703 213.211 957.766 211.641 958.117 209.508H956.113ZM952.914 202.371C954.836 202.371 956.113 203.824 956.16 205.863H949.539C949.668 203.836 951.004 202.371 952.914 202.371ZM221.324 251H223.363V243.828C223.363 241.766 224.617 240.406 226.539 240.406C228.414 240.406 229.34 241.484 229.34 243.453V251H231.379V243.09C231.379 240.324 229.832 238.602 227.16 238.602C225.273 238.602 223.973 239.445 223.293 240.758H223.246V238.812H221.324V251ZM242.066 247.508C241.727 248.656 240.59 249.441 239.043 249.441C236.852 249.441 235.48 247.906 235.48 245.574V245.457H244.223V244.684C244.223 240.992 242.195 238.602 238.902 238.602C235.539 238.602 233.383 241.168 233.383 244.953C233.383 248.785 235.504 251.211 238.996 251.211C241.656 251.211 243.719 249.641 244.07 247.508H242.066ZM238.867 240.371C240.789 240.371 242.066 241.824 242.113 243.863H235.492C235.621 241.836 236.957 240.371 238.867 240.371ZM246.941 235.871V238.812H245.125V240.488H246.941V247.836C246.941 250.18 247.809 251.094 250.047 251.094C250.527 251.094 251.09 251.059 251.336 251V249.289C251.195 249.312 250.727 249.348 250.492 249.348C249.449 249.348 248.98 248.844 248.98 247.73V240.488H251.348V238.812H248.98V235.871H246.941ZM254.184 235.871V238.812H252.367V240.488H254.184V247.836C254.184 250.18 255.051 251.094 257.289 251.094C257.77 251.094 258.332 251.059 258.578 251V249.289C258.438 249.312 257.969 249.348 257.734 249.348C256.691 249.348 256.223 248.844 256.223 247.73V240.488H258.59V238.812H256.223V235.871H254.184ZM260.559 242.176C260.559 243.934 261.672 245 263.969 245.551L265.902 246.02C267.297 246.359 267.777 246.863 267.777 247.742C267.777 248.844 266.758 249.547 265.105 249.547C263.453 249.547 262.516 248.879 262.27 247.484H260.23C260.465 249.77 262.246 251.211 265.105 251.211C267.824 251.211 269.828 249.711 269.828 247.59C269.828 245.844 268.938 244.883 266.477 244.285L264.543 243.816C263.184 243.488 262.562 242.914 262.562 242.07C262.562 241.004 263.547 240.266 265.035 240.266C266.535 240.266 267.473 241.051 267.625 242.328H269.57C269.488 240.172 267.707 238.602 265.035 238.602C262.398 238.602 260.559 240.09 260.559 242.176ZM273.074 236.645C273.789 236.645 274.352 236.07 274.352 235.367C274.352 234.652 273.789 234.09 273.074 234.09C272.371 234.09 271.797 234.652 271.797 235.367C271.797 236.07 272.371 236.645 273.074 236.645ZM272.055 251H274.094V238.812H272.055V251ZM281.465 251.211C283.223 251.211 284.617 250.344 285.402 248.938H285.438V251H287.383V234.09H285.344V240.793H285.297C284.57 239.457 283.164 238.602 281.418 238.602C278.348 238.602 276.25 241.086 276.25 244.906C276.25 248.727 278.359 251.211 281.465 251.211ZM281.852 240.395C283.949 240.395 285.355 242.188 285.355 244.906C285.355 247.637 283.949 249.418 281.852 249.418C279.695 249.418 278.336 247.672 278.336 244.906C278.336 242.152 279.695 240.395 281.852 240.395ZM298.223 247.508C297.883 248.656 296.746 249.441 295.199 249.441C293.008 249.441 291.637 247.906 291.637 245.574V245.457H300.379V244.684C300.379 240.992 298.352 238.602 295.059 238.602C291.695 238.602 289.539 241.168 289.539 244.953C289.539 248.785 291.66 251.211 295.152 251.211C297.812 251.211 299.875 249.641 300.227 247.508H298.223ZM295.023 240.371C296.945 240.371 298.223 241.824 298.27 243.863H291.648C291.777 241.836 293.113 240.371 295.023 240.371Z" fill="white"/>
<path d="M229.023 152V141.125L232.352 137.234L243.344 152H250.703L236.664 133.18L249.695 118.18H242.734L229.234 134H229.023V118.18H222.977V152H229.023ZM262.773 152.492C270.062 152.492 274.797 147.641 274.797 139.578C274.797 131.539 270.016 126.641 262.773 126.641C255.531 126.641 250.75 131.562 250.75 139.578C250.75 147.641 255.484 152.492 262.773 152.492ZM262.773 147.875C259.07 147.875 256.68 144.875 256.68 139.578C256.68 134.305 259.094 131.281 262.773 131.281C266.477 131.281 268.867 134.305 268.867 139.578C268.867 144.875 266.477 147.875 262.773 147.875ZM278.547 152H284.383V136.789C284.383 133.789 286.352 131.609 289.164 131.609C291.883 131.609 293.57 133.32 293.57 136.086V152H299.242V136.648C299.242 133.672 301.164 131.609 303.977 131.609C306.836 131.609 308.43 133.344 308.43 136.391V152H314.266V134.961C314.266 129.992 311.055 126.688 306.156 126.688C302.57 126.688 299.617 128.609 298.422 131.68H298.281C297.367 128.492 294.859 126.688 291.344 126.688C287.969 126.688 285.344 128.586 284.266 131.469H284.148V127.156H278.547V152ZM335.195 152V118.18H329.148V152H335.195ZM380.359 137.891V134.281H366.297V138.898H374.453L374.43 139.461C374.336 144.195 370.797 147.43 365.688 147.43C359.594 147.43 355.797 142.672 355.797 134.891C355.797 127.273 359.43 122.75 365.523 122.75C369.672 122.75 372.812 125.047 373.961 128.938H380.102C379 122.164 373.188 117.617 365.5 117.617C355.727 117.617 349.609 124.227 349.609 134.961C349.609 145.859 355.75 152.562 365.617 152.562C374.875 152.562 380.359 147.055 380.359 137.891ZM391.891 152.398C395.078 152.398 398.195 150.734 399.625 148.039H399.742V152H405.367V134.891C405.367 129.898 401.359 126.641 395.195 126.641C388.867 126.641 384.906 129.969 384.648 134.609H390.062C390.438 132.547 392.195 131.211 394.961 131.211C397.844 131.211 399.602 132.711 399.602 135.312V137.094L393.039 137.469C386.992 137.844 383.594 140.492 383.594 144.898C383.594 149.375 387.086 152.398 391.891 152.398ZM393.648 147.992C391.117 147.992 389.43 146.703 389.43 144.664C389.43 142.695 391.047 141.43 393.859 141.242L399.602 140.891V142.789C399.602 145.789 396.953 147.992 393.648 147.992ZM410.078 152H415.914V137.609C415.914 134.047 418.047 131.633 421.398 131.633C424.727 131.633 426.367 133.602 426.367 137.117V152H432.203V135.945C432.203 130.203 429.086 126.688 423.602 126.688C419.781 126.688 417.133 128.469 415.797 131.422H415.68V127.156H410.078V152ZM447.836 161.375C455.078 161.375 459.836 157.531 459.836 151.602V127.156H454.117V131.422H454.023C452.594 128.562 449.734 126.734 446.195 126.734C439.844 126.734 435.859 131.633 435.859 139.484C435.859 147.219 439.938 152.023 446.078 152.023C449.641 152.023 452.57 150.242 453.859 147.57H454V151.766C454 154.93 451.82 157.062 448.023 157.062C445.258 157.062 443.125 155.773 442.492 153.875H436.703C437.289 158.234 441.695 161.375 447.836 161.375ZM447.859 147.383C444.18 147.383 441.836 144.43 441.836 139.508C441.836 134.633 444.18 131.539 447.859 131.539C451.586 131.539 454 134.68 454 139.508C454 144.359 451.586 147.383 447.859 147.383Z" fill="white"/>
<defs>
<filter id="filter0_d" x="0" y="0" width="1498" height="478" filterUnits="userSpaceOnUse" color-interpolation-filters="sRGB">
<feFlood flood-opacity="0" result="BackgroundImageFix"/>
<feColorMatrix in="SourceAlpha" type="matrix" values="0 0 0 0 0 0 0 0 0 0 0 0 0 0 0 0 0 0 127 0"/>
<feOffset dy="54"/>
<feGaussianBlur stdDeviation="50"/>
<feColorMatrix type="matrix" values="0 0 0 0 0.0392157 0 0 0 0 0.0156863 0 0 0 0 0.235294 0 0 0 0.08 0"/>
<feBlend mode="normal" in2="BackgroundImageFix" result="effect1_dropShadow"/>
<feBlend mode="normal" in="SourceGraphic" in2="effect1_dropShadow" result="shape"/>
</filter>
</defs>
</svg>
