<svg width="92" height="28" viewBox="0 0 92 28" fill="none" xmlns="http://www.w3.org/2000/svg">
<path fill-rule="evenodd" clip-rule="evenodd" d="M91.8074 27.2037V0.59668H86.8901V27.2037H91.8074ZM25.6414 2.60494C23.4855 1.94622 21.1241 1.61782 18.5633 1.61782C16.003 1.61782 13.6349 1.94606 11.4649 2.60428C9.29466 3.26259 7.41585 4.18182 5.83552 5.36052C4.25579 6.53877 3.03021 7.91685 2.16243 9.48992C1.29367 11.0648 0.859863 12.7636 0.859863 14.5809C0.859863 16.3982 1.29367 18.0971 2.16243 19.6719C3.03021 21.245 4.25579 22.6231 5.83552 23.8013C7.41585 24.98 9.29466 25.8993 11.4649 26.5576C13.6349 27.2158 16.003 27.544 18.5633 27.544C21.1241 27.544 23.4855 27.2156 25.6414 26.5569C27.7948 25.899 29.6716 24.9807 31.2653 23.8038C32.8614 22.6251 34.0957 21.2462 34.9641 19.6719C35.8329 18.0971 36.2667 16.3982 36.2667 14.5809C36.2667 12.7636 35.8329 11.0648 34.9641 9.48992C34.0957 7.91565 32.8614 6.53671 31.2653 5.35806C29.6716 4.18115 27.7948 3.2629 25.6414 2.60494ZM74.6275 8.46519C73.3816 7.84754 71.9656 7.54061 70.3874 7.54061C68.4133 7.54061 66.6471 7.96606 65.0999 8.82005C63.5507 9.6752 62.3305 10.8541 61.4499 12.3484C60.5676 13.8455 60.1279 15.5699 60.1279 17.5083C60.1279 19.4408 60.5476 21.1707 61.3899 22.6866C62.2337 24.205 63.4011 25.3988 64.8832 26.2574C66.3652 27.116 68.0569 27.5441 69.9455 27.5441C71.0875 27.5441 72.157 27.3727 73.151 27.0286C74.1305 26.6895 75.0008 26.2507 75.7598 25.7113L76.1259 25.4395L76.3074 25.2904V27.2037H81.2247V7.91503H76.3074V9.4794L76.275 9.45459L75.8982 9.19211C75.5096 8.9347 75.086 8.69248 74.6275 8.46519ZM37.3316 7.91492H42.8197L48.598 20.3731L54.5666 7.91492H59.8961L50.2838 27.2036H46.6137L37.3316 7.91492ZM70.7615 12.1925C69.6314 12.1925 68.6447 12.4307 67.7901 12.9039C66.9368 13.3764 66.2821 14.0072 65.8146 14.804C65.3473 15.6006 65.1134 16.4975 65.1134 17.5083C65.1134 18.5655 65.348 19.4853 65.8146 20.2806C66.2821 21.0774 66.9368 21.7082 67.7901 22.1807C68.6447 22.6539 69.6314 22.8921 70.7615 22.8921C71.8916 22.8921 72.8784 22.6539 73.733 22.1807C74.588 21.7072 75.2498 21.0744 75.7288 20.275C76.2046 19.4808 76.4436 18.5632 76.4436 17.5083C76.4436 16.4999 76.2053 15.605 75.7288 14.8096C75.2498 14.0102 74.588 13.3774 73.733 12.9039C72.8784 12.4307 71.8916 12.1925 70.7615 12.1925ZM14.9087 7.65931C16.493 6.96135 18.3483 6.61022 20.4892 6.61022C22.572 6.61022 24.4065 6.9612 26.0073 7.66055C27.6085 8.36005 28.8545 9.30382 29.7583 10.4998C30.6598 11.6927 31.1113 13.0486 31.1113 14.581C31.1113 16.091 30.6597 17.442 29.7566 18.6474C28.8527 19.8539 27.6073 20.8024 26.0073 21.5014C24.4065 22.2007 22.572 22.5517 20.4892 22.5517C18.3483 22.5517 16.493 22.2006 14.9087 21.5026C13.3226 20.8039 12.0912 19.8611 11.2013 18.666C10.3125 17.4724 9.86717 16.115 9.86717 14.581C9.86717 13.0469 10.3125 11.6896 11.2013 10.4959C12.0912 9.30081 13.3226 8.35804 14.9087 7.65931Z" fill="#576867"/>
</svg>
