<svg width="241" height="36" viewBox="0 0 241 36" fill="none" xmlns="http://www.w3.org/2000/svg">
<path d="M72.1611 13.4727L66.6973 29H62.6836L57.1758 13.4727H61.0723L64.6758 25.6162H64.749L68.3525 13.4727H72.1611ZM74.9336 29V13.4727H78.5811V29H74.9336ZM78.1855 10.8652C77.7949 11.2461 77.3164 11.4365 76.75 11.4365C76.1836 11.4365 75.7051 11.2461 75.3145 10.8652C74.9238 10.4746 74.7285 10.0059 74.7285 9.45898C74.7285 8.90234 74.9238 8.43359 75.3145 8.05273C75.7051 7.66211 76.1836 7.4668 76.75 7.4668C77.3164 7.4668 77.7949 7.66211 78.1855 8.05273C78.5859 8.43359 78.7861 8.90234 78.7861 9.45898C78.7861 10.0059 78.5859 10.4746 78.1855 10.8652ZM82.335 29V26.7881L90.377 16.373V16.3145H82.4082V13.4727H94.5811V15.875L86.8613 26.085V26.1582H94.7129V29H82.335ZM98.4961 29V13.4727H102.144V29H98.4961ZM101.748 10.8652C101.357 11.2461 100.879 11.4365 100.312 11.4365C99.7461 11.4365 99.2676 11.2461 98.877 10.8652C98.4863 10.4746 98.291 10.0059 98.291 9.45898C98.291 8.90234 98.4863 8.43359 98.877 8.05273C99.2676 7.66211 99.7461 7.4668 100.312 7.4668C100.879 7.4668 101.357 7.66211 101.748 8.05273C102.148 8.43359 102.349 8.90234 102.349 9.45898C102.349 10.0059 102.148 10.4746 101.748 10.8652ZM114.892 29.249C113.769 29.249 112.777 28.9951 111.918 28.4873C111.068 27.9795 110.414 27.2666 109.955 26.3486H109.882V29H106.308V7.8623H109.955V16.1387H110.043C110.482 15.2207 111.127 14.5029 111.977 13.9854C112.826 13.4678 113.798 13.209 114.892 13.209C116.854 13.209 118.412 13.9316 119.564 15.377C120.717 16.8125 121.293 18.7656 121.293 21.2363C121.293 23.7168 120.717 25.6748 119.564 27.1104C118.422 28.5361 116.864 29.249 114.892 29.249ZM113.764 16.2119C112.631 16.2119 111.708 16.6758 110.995 17.6035C110.292 18.5215 109.94 19.7324 109.94 21.2363C109.94 22.75 110.292 23.9658 110.995 24.8838C111.708 25.8018 112.631 26.2607 113.764 26.2607C114.936 26.2607 115.858 25.8115 116.532 24.9131C117.216 24.0049 117.558 22.7793 117.558 21.2363C117.558 19.6934 117.216 18.4727 116.532 17.5742C115.849 16.666 114.926 16.2119 113.764 16.2119ZM124.754 29V13.4727H128.401V29H124.754ZM128.006 10.8652C127.615 11.2461 127.137 11.4365 126.57 11.4365C126.004 11.4365 125.525 11.2461 125.135 10.8652C124.744 10.4746 124.549 10.0059 124.549 9.45898C124.549 8.90234 124.744 8.43359 125.135 8.05273C125.525 7.66211 126.004 7.4668 126.57 7.4668C127.137 7.4668 127.615 7.66211 128.006 8.05273C128.406 8.43359 128.606 8.90234 128.606 9.45898C128.606 10.0059 128.406 10.4746 128.006 10.8652ZM132.565 29V7.8623H136.213V29H132.565ZM140.406 29V13.4727H144.054V29H140.406ZM143.658 10.8652C143.268 11.2461 142.789 11.4365 142.223 11.4365C141.656 11.4365 141.178 11.2461 140.787 10.8652C140.396 10.4746 140.201 10.0059 140.201 9.45898C140.201 8.90234 140.396 8.43359 140.787 8.05273C141.178 7.66211 141.656 7.4668 142.223 7.4668C142.789 7.4668 143.268 7.66211 143.658 8.05273C144.059 8.43359 144.259 8.90234 144.259 9.45898C144.259 10.0059 144.059 10.4746 143.658 10.8652ZM149.126 9.83984H152.773V13.4727H155.703V16.2852H152.773V24.3564C152.773 24.9912 152.925 25.46 153.228 25.7627C153.53 26.0654 154.004 26.2168 154.648 26.2168C155.078 26.2168 155.425 26.1924 155.688 26.1436V28.9268C155.249 29.0244 154.619 29.0732 153.799 29.0732C152.119 29.0732 150.918 28.751 150.195 28.1064C149.482 27.4619 149.126 26.3828 149.126 24.8691V16.2852H146.899V13.4727H149.126V9.83984ZM160.922 34.7715C160.131 34.7715 159.652 34.752 159.486 34.7129V31.8271C159.652 31.8662 160.004 31.8857 160.541 31.8857C161.293 31.8857 161.879 31.7295 162.299 31.417C162.719 31.1045 163.031 30.5918 163.236 29.8789C163.236 29.8691 163.271 29.7275 163.339 29.4541C163.417 29.1807 163.451 29.0342 163.441 29.0146L157.919 13.4727H161.903L165.565 25.8945H165.624L169.286 13.4727H173.124L167.514 29.6152C166.85 31.5391 166.029 32.877 165.053 33.6289C164.076 34.3906 162.699 34.7715 160.922 34.7715Z" fill="#222222"/>
<path d="M33.4674 28.8448C30.4763 28.8451 27.486 27.8288 25.2094 25.7958L24.7539 25.389C24.1507 24.8508 24.1507 23.9776 24.7539 23.4394C25.3563 22.9008 26.3355 22.9008 26.9379 23.4394L27.3931 23.8457C30.7418 26.8363 36.1915 26.8363 39.5417 23.8457C42.8908 20.8551 42.8908 15.9897 39.5417 12.9991C36.1923 10.0091 30.7425 10.0091 27.3931 12.9991L17.0291 22.2519C16.4267 22.7905 15.449 22.7905 14.8455 22.2519C14.2423 21.7137 14.2423 20.8408 14.8455 20.3022L25.2094 11.0494C29.7622 6.98371 37.1718 6.98337 41.7254 11.0494C46.2789 15.1147 46.2789 21.7301 41.7254 25.7958C39.4488 27.8281 36.4573 28.8444 33.4674 28.8448Z" fill="#FF7243"/>
<path fill-rule="evenodd" clip-rule="evenodd" d="M11.6786 28.8448C8.68751 28.8451 5.69758 27.8288 3.42061 25.7958C1.21479 23.8266 0 21.2079 0 18.4222C0 15.6372 1.21479 13.0185 3.42061 11.0494C7.9734 6.98371 15.383 6.98337 19.9369 11.0494L20.3236 11.3946C20.9264 11.9332 20.9257 12.8064 20.3225 13.3447C19.7189 13.8829 18.7413 13.8825 18.1385 13.3436L17.7522 12.9987C14.4042 10.0095 8.95411 10.0085 5.60425 12.9991C3.98211 14.4481 3.08861 16.3735 3.08861 18.4222C3.08861 20.4709 3.98211 22.3971 5.60425 23.8457C8.95334 26.8363 14.4027 26.8363 17.7529 23.8457L28.7319 14.0431C29.3344 13.5045 30.3132 13.5045 30.9156 14.0431C31.5188 14.5813 31.5188 15.4549 30.9156 15.9931L19.9369 25.7958C17.6604 27.8281 14.6689 28.8444 11.6786 28.8448Z" fill="#FF7243"/>
</svg>
