<svg width="83" height="25" viewBox="0 0 83 25" fill="none" xmlns="http://www.w3.org/2000/svg">
<path fill-rule="evenodd" clip-rule="evenodd" d="M82.1013 23.7955V0.0986328H77.7156V23.7955H82.1013ZM23.0887 1.88726C21.1659 1.30058 19.0598 1.00811 16.7758 1.00811C14.4924 1.00811 12.3803 1.30044 10.4449 1.88667C8.50923 2.47297 6.83354 3.29166 5.42406 4.34145C4.01512 5.39083 2.92204 6.61818 2.14807 8.01919C1.37324 9.42179 0.986328 10.9348 0.986328 12.5534C0.986328 14.1719 1.37324 15.685 2.14807 17.0875C2.92204 18.4886 4.01512 19.7159 5.42406 20.7653C6.83354 21.8151 8.50923 22.6338 10.4449 23.2201C12.3803 23.8063 14.4924 24.0986 16.7758 24.0986C19.0598 24.0986 21.1659 23.8062 23.0887 23.2195C25.0093 22.6335 26.6832 21.8157 28.1046 20.7675C29.5282 19.7177 30.629 18.4896 31.4035 17.0875C32.1784 15.685 32.5653 14.1719 32.5653 12.5534C32.5653 10.9348 32.1784 9.42179 31.4035 8.01919C30.629 6.61711 29.5282 5.38899 28.1046 4.33925C26.6832 3.29107 25.0093 2.47325 23.0887 1.88726ZM66.779 7.10651C65.6678 6.55642 64.4048 6.28305 62.9973 6.28305C61.2366 6.28305 59.6614 6.66197 58.2815 7.42256C56.8997 8.18418 55.8114 9.23417 55.026 10.565C54.2391 11.8984 53.847 13.4342 53.847 15.1605C53.847 16.8817 54.2213 18.4224 54.9725 19.7725C55.7251 21.1248 56.7663 22.188 58.0882 22.9527C59.4099 23.7174 60.9187 24.0986 62.6032 24.0986C63.6217 24.0986 64.5756 23.946 65.4621 23.6396C66.3357 23.3376 67.1119 22.9468 67.7889 22.4663L68.1154 22.2243L68.2773 22.0915V23.7955H72.663V6.61653H68.2773V8.00979L68.2484 7.98769L67.9123 7.75393C67.5657 7.52467 67.1879 7.30894 66.779 7.10651ZM33.5152 6.61653H38.41L43.5636 17.7121L48.8869 6.61653H53.6402L45.0671 23.7955H41.7938L33.5152 6.61653ZM63.3307 10.4262C62.3228 10.4262 61.4427 10.6383 60.6806 11.0598C59.9195 11.4806 59.3356 12.0424 58.9187 12.752C58.5019 13.4615 58.2933 14.2604 58.2933 15.1605C58.2933 16.1022 58.5025 16.9213 58.9187 17.6297C59.3356 18.3393 59.9195 18.9011 60.6806 19.3219C61.4427 19.7434 62.3228 19.9555 63.3307 19.9555C64.3387 19.9555 65.2188 19.7434 65.9809 19.3219C66.7435 18.9002 67.3338 18.3367 67.761 17.6246C68.1853 16.9173 68.3985 16.1001 68.3985 15.1605C68.3985 14.2624 68.186 13.4655 67.761 12.7571C67.3338 12.045 66.7435 11.4815 65.9809 11.0598C65.2188 10.6383 64.3387 10.4262 63.3307 10.4262ZM13.5165 6.38877C14.9295 5.76715 16.5843 5.45442 18.4937 5.45442C20.3513 5.45442 21.9875 5.76702 23.4152 6.38987C24.8433 7.01286 25.9546 7.85341 26.7607 8.91862C27.5647 9.981 27.9674 11.1886 27.9674 12.5534C27.9674 13.8982 27.5646 15.1015 26.7592 16.175C25.953 17.2496 24.8422 18.0944 23.4152 18.7169C21.9875 19.3397 20.3513 19.6523 18.4937 19.6523C16.5843 19.6523 14.9295 19.3396 13.5165 18.718C12.1018 18.0957 11.0036 17.256 10.2099 16.1916C9.41719 15.1285 9.02001 13.9196 9.02001 12.5534C9.02001 11.1871 9.41719 9.97823 10.2099 8.9151C11.0036 7.85073 12.1018 7.01108 13.5165 6.38877Z" fill="white"/>
</svg>
